<?xml version="1.0" standalone="no"?>
<!DOCTYPE svg PUBLIC "-//W3C//DTD SVG 20010904//EN"
 "http://www.w3.org/TR/2001/REC-SVG-20010904/DTD/svg10.dtd">
<svg version="1.0" xmlns="http://www.w3.org/2000/svg"
 width="2208.000000pt" height="787.000000pt" viewBox="0 0 2208.000000 787.000000"
 preserveAspectRatio="xMidYMid meet">
<metadata>
Created by potrace 1.16, written by Peter Selinger 2001-2019
</metadata>
<g transform="translate(0.000000,787.000000) scale(0.100000,-0.100000)"
fill="#000000" stroke="none">
<path d="M3740 7231 c-609 -51 -1212 -276 -1700 -634 -312 -230 -615 -547
-812 -852 -100 -154 -124 -195 -188 -320 -154 -301 -264 -631 -319 -960 -78
-460 -52 -992 70 -1425 224 -794 700 -1449 1385 -1906 78 -52 145 -94 148 -94
4 0 24 -11 46 -25 65 -41 249 -131 365 -178 351 -144 690 -220 1097 -248 447
-30 1013 68 1443 251 282 120 515 255 755 439 95 72 352 302 375 333 7 12 36
44 62 72 246 260 484 643 631 1019 190 481 266 1011 217 1499 -22 215 -46 355
-96 553 -115 451 -350 908 -659 1281 -106 128 -347 365 -475 467 -589 471
-1279 720 -2020 732 -126 2 -273 0 -325 -4z m2120 -1896 c0 -3 -68 -123 -151
-267 -83 -145 -182 -317 -220 -383 -38 -66 -73 -127 -78 -135 -6 -8 -53 -89
-104 -180 -52 -91 -120 -209 -151 -262 -31 -53 -56 -101 -56 -106 0 -5 24 -14
54 -21 60 -13 153 -66 205 -114 52 -50 108 -138 131 -207 27 -79 29 -214 5
-297 -34 -117 -140 -246 -247 -300 -101 -50 -136 -55 -443 -56 l-287 -2 -174
-300 c-96 -165 -182 -314 -191 -332 -73 -133 -157 -273 -164 -273 -4 0 -27 34
-51 76 -24 41 -52 92 -64 112 -12 20 -97 168 -189 327 -92 160 -176 304 -185
320 -65 113 -58 107 -109 99 -25 -4 -57 -11 -71 -17 -15 -7 -162 -12 -370 -15
l-345 -3 145 145 145 146 175 0 c125 0 181 4 193 13 18 13 31 -11 -191 372
-41 72 -84 147 -96 167 -12 21 -54 95 -95 165 -41 70 -107 184 -145 251 -39
68 -80 139 -91 157 -30 52 -89 154 -120 210 -15 28 -31 55 -35 60 -4 6 -61
102 -125 215 -65 113 -126 219 -136 235 -10 17 -24 41 -32 55 -7 14 -28 51
-45 82 -18 31 -32 59 -32 62 0 4 842 6 1870 6 1029 0 1870 -2 1870 -5z"/>
<path d="M2516 5112 c-3 -5 31 -71 76 -148 44 -76 92 -159 106 -184 13 -25 29
-50 34 -57 7 -8 96 -13 311 -15 283 -4 306 -6 372 -27 292 -97 515 -325 591
-606 30 -109 27 -344 -4 -445 -59 -189 -162 -334 -332 -468 l-25 -20 21 -39
c12 -21 45 -78 73 -128 29 -49 96 -165 149 -257 53 -92 99 -165 103 -162 5 3
28 39 52 82 24 42 86 149 137 237 51 88 103 178 116 200 12 22 53 94 92 160
38 66 114 198 170 294 55 96 99 178 96 183 -3 4 -29 8 -58 8 -137 0 -264 51
-353 143 -60 61 -114 152 -132 222 -15 60 -16 194 -2 255 23 102 123 237 221
300 61 39 156 70 216 70 l44 0 0 -139 0 -139 -51 -12 c-212 -51 -210 -364 3
-410 29 -6 106 -10 172 -8 l120 3 55 97 c177 306 436 755 498 861 39 67 72
130 72 140 1 16 -75 17 -1468 17 -809 0 -1472 -4 -1475 -8z"/>
<path d="M2918 4399 c24 -42 99 -173 224 -389 52 -91 103 -181 114 -200 10
-19 22 -37 25 -40 3 -3 12 -18 21 -35 59 -117 194 -335 207 -335 29 0 138 126
176 202 61 124 77 244 51 369 -44 207 -193 370 -396 434 -41 13 -104 19 -248
22 l-193 5 19 -33z"/>
<path d="M4892 3653 c-112 -193 -202 -353 -202 -358 0 -3 81 -5 180 -5 143 0
188 3 222 16 183 71 183 314 0 395 -27 12 -66 19 -102 19 l-59 0 -39 -67z"/>
</g>
</svg>
